<svg width="227" height="227" viewBox="0 0 227 227" fill="none" xmlns="http://www.w3.org/2000/svg">
<mask id="mask0_29_191" style="mask-type:alpha" maskUnits="userSpaceOnUse" x="0" y="0" width="227" height="227">
<rect width="227" height="227" rx="35" fill="#D9D9D9"/>
</mask>
<g mask="url(#mask0_29_191)">
<rect x="-47.1279" y="-21.9931" width="347.176" height="139.813" fill="#D2F4FF"/>
<path d="M172.536 60.7682C172.536 58.0068 174.775 55.7682 177.536 55.7682H206.532H237.443C240.204 55.7682 242.443 58.0068 242.443 60.7682V252.633C242.443 255.395 240.204 257.633 237.443 257.633H177.536C174.775 257.633 172.536 255.395 172.536 252.633V60.7682Z" fill="#66C3E1"/>
<path d="M172.536 114H206.532H242.443V133.637H172.536V114Z" fill="white" fill-opacity="0.15"/>
<path d="M109 95.3287C109 92.5673 111.239 90.3287 114 90.3287H142.996H173.907C176.668 90.3287 178.907 92.5673 178.907 95.3287V294.263C178.907 297.024 176.668 299.263 173.907 299.263H114C111.239 299.263 109 297.024 109 294.263V95.3287Z" fill="#5288C7"/>
<path d="M109 137H142.996H178.907V156.637H109V137Z" fill="white" fill-opacity="0.15"/>
<path d="M-18 61C-18 58.2386 -15.7614 56 -13 56H15.9961H46.9066C49.668 56 51.9066 58.2386 51.9066 61V252.865C51.9066 255.626 49.668 257.865 46.9066 257.865H-13C-15.7614 257.865 -18 255.626 -18 252.865V61Z" fill="#5288C7"/>
<path d="M-18 120H15.9961H51.9066V139.637H-18V120Z" fill="white" fill-opacity="0.15"/>
<path d="M45.5571 20.7094C45.5571 17.9479 47.7957 15.7094 50.5571 15.7094H79.5532H110.464C113.225 15.7094 115.464 17.9479 115.464 20.7094V292.692C115.464 295.453 113.225 297.692 110.464 297.692H50.5571C47.7957 297.692 45.5571 295.453 45.5571 292.692V20.7094Z" fill="#5E9EE8"/>
<path d="M45.5571 56H79.5532H115.464V75.6367H45.5571V56Z" fill="white" fill-opacity="0.15"/>
<path d="M45.5571 186H79.5532H115.464V205.637H45.5571V186Z" fill="white" fill-opacity="0.15"/>
</g>
</svg>
