<svg width="224" height="59" viewBox="0 0 224 59" fill="none" xmlns="http://www.w3.org/2000/svg">
<path d="M0 10.9715C0 10.6775 0.25246 10.447 0.545268 10.4736L5.45473 10.9199C5.48485 10.9226 5.51515 10.9226 5.54527 10.9199L10.4547 10.4736C10.7475 10.447 11 10.6775 11 10.9715V56.924C11 57.2002 10.7761 57.424 10.5 57.424H0.5C0.223858 57.424 0 57.2002 0 56.924V10.9715Z" fill="#3562A4"/>
<path d="M20 10.9715C20 10.6775 20.2525 10.447 20.5453 10.4736L25.4547 10.9199C25.4848 10.9226 25.5152 10.9226 25.5453 10.9199L30.4547 10.4736C30.7475 10.447 31 10.6775 31 10.9715V56.924C31 57.2002 30.7761 57.424 30.5 57.424H20.5C20.2239 57.424 20 57.2002 20 56.924V10.9715Z" fill="#5288C7"/>
<path d="M11 16.9826C11 16.6846 11.259 16.4528 11.5552 16.4857L15.4448 16.9179C15.4815 16.922 15.5185 16.922 15.5552 16.9179L19.4448 16.4857C19.741 16.4528 20 16.6846 20 16.9826V56.924C20 57.2002 19.7761 57.424 19.5 57.424H11.5C11.2239 57.424 11 57.2002 11 56.924V16.9826Z" fill="#669FE1" fill-opacity="0.8"/>
<path d="M96.1819 47.508V57.424H61.9199V6.142H73.4639V47.508H96.1819Z" fill="#323232"/>
<path d="M101.027 38.258C101.027 34.8047 101.545 31.7953 102.581 29.23C103.667 26.6153 105.073 24.4447 106.799 22.718C108.526 20.9913 110.499 19.684 112.719 18.796C114.989 17.908 117.307 17.464 119.675 17.464C125.201 17.464 129.567 19.166 132.773 22.57C135.98 25.9247 137.583 30.8827 137.583 37.444C137.583 38.0853 137.559 38.8007 137.509 39.59C137.46 40.33 137.411 40.996 137.361 41.588H112.349C112.596 43.8573 113.657 45.658 115.531 46.99C117.406 48.322 119.922 48.988 123.079 48.988C125.102 48.988 127.075 48.8153 128.999 48.47C130.973 48.0753 132.576 47.6067 133.809 47.064L135.289 56.018C134.697 56.314 133.908 56.61 132.921 56.906C131.935 57.202 130.825 57.4487 129.591 57.646C128.407 57.8927 127.125 58.09 125.743 58.238C124.362 58.386 122.981 58.46 121.599 58.46C118.097 58.46 115.038 57.942 112.423 56.906C109.858 55.87 107.712 54.464 105.985 52.688C104.308 50.8627 103.05 48.7167 102.211 46.25C101.422 43.7833 101.027 41.1193 101.027 38.258ZM126.927 34.04C126.878 33.1027 126.705 32.19 126.409 31.302C126.163 30.414 125.743 29.6247 125.151 28.934C124.609 28.2433 123.893 27.676 123.005 27.232C122.167 26.788 121.106 26.566 119.823 26.566C118.59 26.566 117.529 26.788 116.641 27.232C115.753 27.6267 115.013 28.1693 114.421 28.86C113.829 29.5507 113.361 30.3647 113.015 31.302C112.719 32.19 112.497 33.1027 112.349 34.04H126.927Z" fill="#323232"/>
<path d="M146.092 19.832C147.967 19.2893 150.384 18.796 153.344 18.352C156.304 17.8587 159.412 17.612 162.668 17.612C165.973 17.612 168.711 18.056 170.882 18.944C173.102 19.7827 174.853 20.9913 176.136 22.57C177.419 24.1487 178.331 26.0233 178.874 28.194C179.417 30.3647 179.688 32.782 179.688 35.446V57.424H168.662V36.778C168.662 33.226 168.193 30.71 167.256 29.23C166.319 27.75 164.567 27.01 162.002 27.01C161.213 27.01 160.374 27.0593 159.486 27.158C158.598 27.2073 157.809 27.2813 157.118 27.38V57.424H146.092V19.832Z" fill="#323232"/>
<path d="M199.066 37.666C199.066 41.07 199.831 43.808 201.36 45.88C202.89 47.952 205.159 48.988 208.168 48.988C209.155 48.988 210.068 48.9633 210.906 48.914C211.745 48.8153 212.436 48.7167 212.978 48.618V28.564C212.288 28.12 211.375 27.75 210.24 27.454C209.155 27.158 208.045 27.01 206.91 27.01C201.681 27.01 199.066 30.562 199.066 37.666ZM224.004 56.166C223.018 56.462 221.883 56.758 220.6 57.054C219.318 57.3007 217.961 57.5227 216.53 57.72C215.149 57.9173 213.718 58.0653 212.238 58.164C210.808 58.312 209.426 58.386 208.094 58.386C204.888 58.386 202.026 57.9173 199.51 56.98C196.994 56.0427 194.873 54.7107 193.146 52.984C191.42 51.208 190.088 49.0867 189.15 46.62C188.262 44.104 187.818 41.292 187.818 38.184C187.818 35.0267 188.213 32.19 189.002 29.674C189.792 27.1087 190.926 24.938 192.406 23.162C193.886 21.386 195.687 20.0293 197.808 19.092C199.979 18.1547 202.446 17.686 205.208 17.686C206.738 17.686 208.094 17.834 209.278 18.13C210.512 18.426 211.745 18.8453 212.978 19.388V1.776L224.004 0V56.166Z" fill="#323232"/>
<rect y="15.424" width="11" height="2" fill="#D9D9D9" fill-opacity="0.15"/>
<rect x="11" y="50.424" width="9" height="2" fill="#D9D9D9" fill-opacity="0.15"/>
<rect x="11" y="21.424" width="9" height="2" fill="#D9D9D9" fill-opacity="0.15"/>
<rect y="21.424" width="11" height="2" fill="#D9D9D9" fill-opacity="0.15"/>
<rect x="20" y="21.424" width="11" height="2" fill="#D9D9D9" fill-opacity="0.15"/>
<path d="M31.0749 7.47832C31.0346 7.18845 31.2508 6.92607 31.543 6.91017L36.4506 6.64301C36.4785 6.64149 36.5061 6.63765 36.5333 6.63153L41.3649 5.54341C41.6503 5.47914 41.9296 5.67254 41.97 5.9623L48.8536 55.4423C48.8916 55.7158 48.7008 55.9684 48.4272 56.0064L38.5226 57.3843C38.2491 57.4224 37.9966 57.2315 37.9585 56.958L31.0749 7.47832Z" fill="#66C3E1"/>
<rect x="33.0669" y="21.7966" width="11" height="2" transform="rotate(-7.92011 33.0669 21.7966)" fill="#D9D9D9" fill-opacity="0.15"/>
<rect x="31.8267" y="12.8825" width="11" height="2" transform="rotate(-7.92011 31.8267 12.8825)" fill="#D9D9D9" fill-opacity="0.15"/>
<rect x="37.0627" y="50.52" width="11" height="2" transform="rotate(-7.92011 37.0627 50.52)" fill="#D9D9D9" fill-opacity="0.15"/>
<rect x="20" y="15.424" width="11" height="2" fill="#D9D9D9" fill-opacity="0.15"/>
<rect x="20" y="50.424" width="11" height="2" fill="#D9D9D9" fill-opacity="0.15"/>
<rect y="50.424" width="11" height="2" fill="#D9D9D9" fill-opacity="0.15"/>
</svg>
