<svg width="274" height="274" viewBox="0 0 274 274" fill="none" xmlns="http://www.w3.org/2000/svg">
<mask id="mask0_35_4" style="mask-type:alpha" maskUnits="userSpaceOnUse" x="0" y="0" width="274" height="274">
<rect width="274" height="274" fill="#F42E2E"/>
</mask>
<g mask="url(#mask0_35_4)">
<rect x="-71" y="-5" width="401.921" height="347.754" fill="#E0F6FF"/>
<path d="M165.352 115.501C165.352 109.978 169.829 105.501 175.352 105.501H223.215H274.337C279.86 105.501 284.337 109.978 284.337 115.501V310.004C284.337 315.527 279.86 320.004 274.337 320.004H175.352C169.829 320.004 165.352 315.527 165.352 310.004V115.501Z" fill="#66C3E1"/>
<path d="M177.877 134H229.649H284.337V153.5H177.877V134Z" fill="#E0F6FF" fill-opacity="0.5"/>
<path d="M172.867 230.418H227.076H284.338V249.918H172.867V230.418Z" fill="#E0F6FF" fill-opacity="0.5"/>
<path d="M-4 85C-4 79.4771 0.477152 75 6 75H87.912H175C180.523 75 185 79.4772 185 85V310C185 315.523 180.523 320 175 320H6C0.477148 320 -4 315.523 -4 310V85Z" fill="#5288C7"/>
<path d="M69 114H125.412H185V133H69V114Z" fill="#E0F6FF" fill-opacity="0.5"/>
<path d="M68.8735 220H125.347H185V239.652H68.8735V220Z" fill="#E0F6FF" fill-opacity="0.5"/>
<path d="M-25.4019 136.259H15.7528H59.2251V155.554H-25.4019V136.259Z" fill="#D8E0FF" fill-opacity="0.1"/>
<path d="M-25.4019 247.292H15.7528H59.2251V266.587H-25.4019V247.292Z" fill="#D8E0FF" fill-opacity="0.1"/>
<path d="M-12 53C-12 47.4772 -7.52285 43 -2 43H35.6581H76C81.5228 43 86 47.4772 86 53V310C86 315.523 81.5228 320 76 320H-2C-7.52285 320 -12 315.523 -12 310V53Z" fill="#5E9EE8"/>
<path d="M-12.499 84.9177H35.4017H86V104.213H-12.499V84.9177Z" fill="#E0F6FF" fill-opacity="0.5"/>
<path d="M-12.499 209H35.4017H86V228.295H-12.499V209Z" fill="#E0F6FF" fill-opacity="0.5"/>
</g>
</svg>
