<svg width="237" height="59" viewBox="0 0 237 59" fill="none" xmlns="http://www.w3.org/2000/svg">
<path d="M108.262 47.508V57.424H74V6.142H85.544V47.508H108.262Z" fill="#323232"/>
<path d="M113.107 38.258C113.107 34.8047 113.625 31.7953 114.661 29.23C115.747 26.6153 117.153 24.4447 118.879 22.718C120.606 20.9913 122.579 19.684 124.799 18.796C127.069 17.908 129.387 17.464 131.755 17.464C137.281 17.464 141.647 19.166 144.853 22.57C148.06 25.9247 149.663 30.8827 149.663 37.444C149.663 38.0853 149.639 38.8007 149.589 39.59C149.54 40.33 149.491 40.996 149.441 41.588H124.429C124.676 43.8573 125.737 45.658 127.611 46.99C129.486 48.322 132.002 48.988 135.159 48.988C137.182 48.988 139.155 48.8153 141.079 48.47C143.053 48.0753 144.656 47.6067 145.889 47.064L147.369 56.018C146.777 56.314 145.988 56.61 145.001 56.906C144.015 57.202 142.905 57.4487 141.671 57.646C140.487 57.8927 139.205 58.09 137.823 58.238C136.442 58.386 135.061 58.46 133.679 58.46C130.177 58.46 127.118 57.942 124.503 56.906C121.938 55.87 119.792 54.464 118.065 52.688C116.388 50.8627 115.13 48.7167 114.291 46.25C113.502 43.7833 113.107 41.1193 113.107 38.258ZM139.007 34.04C138.958 33.1027 138.785 32.19 138.489 31.302C138.243 30.414 137.823 29.6247 137.231 28.934C136.689 28.2433 135.973 27.676 135.085 27.232C134.247 26.788 133.186 26.566 131.903 26.566C130.67 26.566 129.609 26.788 128.721 27.232C127.833 27.6267 127.093 28.1693 126.501 28.86C125.909 29.5507 125.441 30.3647 125.095 31.302C124.799 32.19 124.577 33.1027 124.429 34.04H139.007Z" fill="#323232"/>
<path d="M158.172 19.832C160.047 19.2893 162.464 18.796 165.424 18.352C168.384 17.8587 171.492 17.612 174.748 17.612C178.053 17.612 180.791 18.056 182.962 18.944C185.182 19.7827 186.933 20.9913 188.216 22.57C189.499 24.1487 190.411 26.0233 190.954 28.194C191.497 30.3647 191.768 32.782 191.768 35.446V57.424H180.742V36.778C180.742 33.226 180.273 30.71 179.336 29.23C178.399 27.75 176.647 27.01 174.082 27.01C173.293 27.01 172.454 27.0593 171.566 27.158C170.678 27.2073 169.889 27.2813 169.198 27.38V57.424H158.172V19.832Z" fill="#323232"/>
<path d="M211.146 37.666C211.146 41.07 211.911 43.808 213.44 45.88C214.97 47.952 217.239 48.988 220.248 48.988C221.235 48.988 222.148 48.9633 222.986 48.914C223.825 48.8153 224.516 48.7167 225.058 48.618V28.564C224.368 28.12 223.455 27.75 222.32 27.454C221.235 27.158 220.125 27.01 218.99 27.01C213.761 27.01 211.146 30.562 211.146 37.666ZM236.084 56.166C235.098 56.462 233.963 56.758 232.68 57.054C231.398 57.3007 230.041 57.5227 228.61 57.72C227.229 57.9173 225.798 58.0653 224.318 58.164C222.888 58.312 221.506 58.386 220.174 58.386C216.968 58.386 214.106 57.9173 211.59 56.98C209.074 56.0427 206.953 54.7107 205.226 52.984C203.5 51.208 202.168 49.0867 201.23 46.62C200.342 44.104 199.898 41.292 199.898 38.184C199.898 35.0267 200.293 32.19 201.082 29.674C201.872 27.1087 203.006 24.938 204.486 23.162C205.966 21.386 207.767 20.0293 209.888 19.092C212.059 18.1547 214.526 17.686 217.288 17.686C218.818 17.686 220.174 17.834 221.358 18.13C222.592 18.426 223.825 18.8453 225.058 19.388V1.776L236.084 0V56.166Z" fill="#323232"/>
<mask id="mask0_21_213" style="mask-type:alpha" maskUnits="userSpaceOnUse" x="0" y="3" width="55" height="55">
<rect y="3" width="55" height="55" rx="5" fill="#D9D9D9"/>
</mask>
<g mask="url(#mask0_21_213)">
<path d="M-26.6522 -27.9348H82.3695V91.3479H-26.6522V-27.9348Z" fill="#C6EEFB"/>
<path d="M10.5435 13.1088H19H27.2174V88.7827H10.5435V13.1088Z" fill="#5E9EE8"/>
<path d="M43.8914 13.1088H52H60.5653V88.7827H43.8914V13.1088Z" fill="#66C3E1"/>
<path d="M27.2174 22.087L35.5 22L43.8913 22.087V88.7826H27.2174V22.087Z" fill="#5288C7"/>
<path d="M-4.84753 16.9566H3H10.5438V88.7827H-4.84753L-4.84753 16.9566Z" fill="#3562A4"/>
</g>
</svg>
