<svg width="260" height="260" viewBox="0 0 260 260" fill="none" xmlns="http://www.w3.org/2000/svg">
<mask id="mask0_31_86" style="mask-type:alpha" maskUnits="userSpaceOnUse" x="0" y="0" width="260" height="260">
<rect width="260" height="260" rx="25" fill="#D9D9D9"/>
</mask>
<g mask="url(#mask0_31_86)">
<path d="M191 47C191 44.2386 193.239 42 196 42H224.555H255C257.761 42 260 44.2386 260 47V279C260 281.761 257.761 284 255 284H196C193.239 284 191 281.761 191 279V47Z" fill="#66C3E1"/>
<path d="M190 89H224.041H260V109H190V89Z" fill="#D8E0FF" fill-opacity="0.1"/>
<path d="M83 82C83 79.2386 85.2386 77 88 77H138.439H192C194.761 77 197 79.2386 197 82V279C197 281.761 194.761 284 192 284H88C85.2386 284 83 281.761 83 279V82Z" fill="#5288C7"/>
<path d="M127 105H160.996H196.907V124.637H127V105Z" fill="#D8E0FF" fill-opacity="0.1"/>
<path d="M127 219.685H161.041H197V239.685H127V219.685Z" fill="#D8E0FF" fill-opacity="0.1"/>
<path d="M0 47C0 44.2386 2.23858 42 5 42H46.1992H90C92.7614 42 95 44.2386 95 47V279C95 281.761 92.7614 284 90 284H5C2.23857 284 0 281.761 0 279V47Z" fill="#5288C7"/>
<path d="M0 83H33.9961H69.9066V102.637H0V83Z" fill="#D8E0FF" fill-opacity="0.1"/>
<path d="M0 196H33.9961H69.9066V215.637H0V196Z" fill="#D8E0FF" fill-opacity="0.1"/>
<path d="M63.5571 7.00001C63.5571 4.23858 65.7957 2 68.5571 2H97.5532H128.464C131.225 2 133.464 4.23858 133.464 7V278.983C133.464 281.744 131.225 283.983 128.464 283.983H68.5571C65.7957 283.983 63.5571 281.744 63.5571 278.983V7.00001Z" fill="#5E9EE8"/>
<path d="M63.5571 45H97.5532H133.464V64.6367H63.5571V45Z" fill="#D8E0FF" fill-opacity="0.1"/>
</g>
</svg>
