<svg width="235" height="60" viewBox="0 0 235 60" fill="none" xmlns="http://www.w3.org/2000/svg">
<path d="M19 0.550606C19 0.255473 19.2543 0.0245552 19.5481 0.0529221L25.4519 0.623019C25.4839 0.626106 25.5161 0.626106 25.5481 0.623019L31.4519 0.0529222C31.7457 0.0245553 32 0.255475 32 0.550607V58.5C32 58.7761 31.7761 59 31.5 59H19.5C19.2239 59 19 58.7761 19 58.5V0.550606Z" fill="#5288C7"/>
<path d="M45 0.550606C45 0.255473 45.2543 0.0245552 45.5481 0.0529221L51.4519 0.623019C51.4839 0.626106 51.5161 0.626106 51.5481 0.623019L57.4519 0.0529222C57.7457 0.0245553 58 0.255475 58 0.550607V58.5C58 58.7761 57.7761 59 57.5 59H45.5C45.2239 59 45 58.7761 45 58.5V0.550606Z" fill="#66C3E1"/>
<path d="M32 7.55116C32 7.25583 32.2546 7.02484 32.5485 7.05352L38.4514 7.62941C38.4837 7.63256 38.5163 7.63256 38.5485 7.62941L44.4514 7.05352C44.7454 7.02484 45 7.25583 45 7.55115V58.5C45 58.7761 44.7761 59 44.5 59H32.5C32.2239 59 32 58.7761 32 58.5V7.55116Z" fill="#5E9EE8"/>
<path d="M106.262 48.0244V57.9404H72V6.65836H83.544V48.0244H106.262Z" fill="#323232"/>
<path d="M111.107 38.7744C111.107 35.321 111.625 32.3117 112.661 29.7464C113.747 27.1317 115.153 24.961 116.879 23.2344C118.606 21.5077 120.579 20.2004 122.799 19.3124C125.069 18.4244 127.387 17.9804 129.755 17.9804C135.281 17.9804 139.647 19.6824 142.853 23.0864C146.06 26.441 147.663 31.399 147.663 37.9604C147.663 38.6017 147.639 39.317 147.589 40.1064C147.54 40.8464 147.491 41.5124 147.441 42.1044H122.429C122.676 44.3737 123.737 46.1744 125.611 47.5064C127.486 48.8384 130.002 49.5044 133.159 49.5044C135.182 49.5044 137.155 49.3317 139.079 48.9864C141.053 48.5917 142.656 48.123 143.889 47.5804L145.369 56.5344C144.777 56.8304 143.988 57.1264 143.001 57.4224C142.015 57.7184 140.905 57.965 139.671 58.1624C138.487 58.409 137.205 58.6064 135.823 58.7544C134.442 58.9024 133.061 58.9764 131.679 58.9764C128.177 58.9764 125.118 58.4584 122.503 57.4224C119.938 56.3864 117.792 54.9804 116.065 53.2044C114.388 51.379 113.13 49.233 112.291 46.7664C111.502 44.2997 111.107 41.6357 111.107 38.7744ZM137.007 34.5564C136.958 33.619 136.785 32.7064 136.489 31.8184C136.243 30.9304 135.823 30.141 135.231 29.4504C134.689 28.7597 133.973 28.1924 133.085 27.7484C132.247 27.3044 131.186 27.0824 129.903 27.0824C128.67 27.0824 127.609 27.3044 126.721 27.7484C125.833 28.143 125.093 28.6857 124.501 29.3764C123.909 30.067 123.441 30.881 123.095 31.8184C122.799 32.7064 122.577 33.619 122.429 34.5564H137.007Z" fill="#323232"/>
<path d="M156.172 20.3484C158.047 19.8057 160.464 19.3124 163.424 18.8684C166.384 18.375 169.492 18.1284 172.748 18.1284C176.053 18.1284 178.791 18.5724 180.962 19.4604C183.182 20.299 184.933 21.5077 186.216 23.0864C187.499 24.665 188.411 26.5397 188.954 28.7104C189.497 30.881 189.768 33.2984 189.768 35.9624V57.9404H178.742V37.2944C178.742 33.7424 178.273 31.2264 177.336 29.7464C176.399 28.2664 174.647 27.5264 172.082 27.5264C171.293 27.5264 170.454 27.5757 169.566 27.6744C168.678 27.7237 167.889 27.7977 167.198 27.8964V57.9404H156.172V20.3484Z" fill="#323232"/>
<path d="M209.146 38.1824C209.146 41.5864 209.911 44.3244 211.44 46.3964C212.97 48.4684 215.239 49.5044 218.248 49.5044C219.235 49.5044 220.148 49.4797 220.986 49.4304C221.825 49.3317 222.516 49.233 223.058 49.1344V29.0804C222.368 28.6364 221.455 28.2664 220.32 27.9704C219.235 27.6744 218.125 27.5264 216.99 27.5264C211.761 27.5264 209.146 31.0784 209.146 38.1824ZM234.084 56.6824C233.098 56.9784 231.963 57.2744 230.68 57.5704C229.398 57.817 228.041 58.039 226.61 58.2364C225.229 58.4337 223.798 58.5817 222.318 58.6804C220.888 58.8284 219.506 58.9024 218.174 58.9024C214.968 58.9024 212.106 58.4337 209.59 57.4964C207.074 56.559 204.953 55.227 203.226 53.5004C201.5 51.7244 200.168 49.603 199.23 47.1364C198.342 44.6204 197.898 41.8084 197.898 38.7004C197.898 35.543 198.293 32.7064 199.082 30.1904C199.872 27.625 201.006 25.4544 202.486 23.6784C203.966 21.9024 205.767 20.5457 207.888 19.6084C210.059 18.671 212.526 18.2024 215.288 18.2024C216.818 18.2024 218.174 18.3504 219.358 18.6464C220.592 18.9424 221.825 19.3617 223.058 19.9044V2.29236L234.084 0.516357V56.6824Z" fill="#323232"/>
<rect x="32" y="51" width="13" height="2" fill="#D9D9D9" fill-opacity="0.15"/>
<rect x="32" y="14" width="13" height="2" fill="#D9D9D9" fill-opacity="0.15"/>
<rect x="19" y="14" width="13" height="2" fill="#D9D9D9" fill-opacity="0.15"/>
<rect x="45" y="14" width="13" height="2" fill="#D9D9D9" fill-opacity="0.15"/>
<rect x="45" y="7" width="13" height="2" fill="#D9D9D9" fill-opacity="0.15"/>
<rect x="19" y="7" width="13" height="2" fill="#D9D9D9" fill-opacity="0.15"/>
<path d="M7.88122 2.54049C7.92263 2.24999 8.20413 2.05742 8.48988 2.12413L13.576 3.31142C13.6044 3.31805 13.6334 3.32219 13.6625 3.32377L18.9174 3.60996C19.2103 3.62591 19.4266 3.88938 19.3852 4.17977L11.5748 58.9802C11.5358 59.2536 11.2826 59.4436 11.0092 59.4047L0.495259 57.9062C0.22188 57.8672 0.0318487 57.614 0.0708123 57.3406L7.88122 2.54049Z" fill="#3562A4"/>
<rect x="1.09216" y="50.1719" width="11.6202" height="2.21176" transform="rotate(8.11148 1.09216 50.1719)" fill="#D9D9D9" fill-opacity="0.15"/>
<rect x="6.83752" y="9.85019" width="11.6082" height="2" transform="rotate(8.11148 6.83752 9.85019)" fill="#D9D9D9" fill-opacity="0.15"/>
<rect x="5.57666" y="18.7614" width="11.594" height="2" transform="rotate(8.11148 5.57666 18.7614)" fill="#D9D9D9" fill-opacity="0.15"/>
<rect x="45" y="51" width="13" height="2" fill="#D9D9D9" fill-opacity="0.15"/>
<rect x="19" y="51" width="13" height="2" fill="#D9D9D9" fill-opacity="0.15"/>
</svg>
