<svg width="284" height="284" viewBox="0 0 284 284" fill="none" xmlns="http://www.w3.org/2000/svg">
<mask id="mask0_32_243" style="mask-type:alpha" maskUnits="userSpaceOnUse" x="0" y="0" width="284" height="284">
<rect width="284" height="284" fill="#F42E2E"/>
</mask>
<g mask="url(#mask0_32_243)">
<rect x="-97" y="-82.9197" width="401.921" height="360.446" fill="#E0F6FF"/>
<path d="M165 127.396C165 119.111 171.716 112.396 180 112.396H222.871H269C277.284 112.396 284 119.111 284 127.396V320.18C284 328.464 277.284 335.18 269 335.18H180C171.716 335.18 165 328.464 165 320.18V127.396Z" fill="#66C3E1"/>
<path d="M178 150.53H229.772H284.46V170.742H178V150.53Z" fill="#D8E0FF" fill-opacity="0.1"/>
<path d="M173 235.285H224.062H278V256.015H173V235.285Z" fill="#D8E0FF" fill-opacity="0.1"/>
<path d="M5.49902 95.8467C5.49902 87.5624 12.2148 80.8467 20.499 80.8467H97.4111H179.499C187.783 80.8467 194.499 87.5624 194.499 95.8467V319.788C194.499 328.073 187.783 334.788 179.499 334.788H20.499C12.2148 334.788 5.49902 328.073 5.49902 319.788V95.8467Z" fill="#5288C7"/>
<path d="M78.499 121.27H134.911H194.499V140.963H78.499V121.27Z" fill="#D8E0FF" fill-opacity="0.1"/>
<path d="M78.3726 231.139H134.846H194.499V251.508H78.3726V231.139Z" fill="#D8E0FF" fill-opacity="0.1"/>
<path d="M-25.4019 144.341H15.7528H59.2251V164.34H-25.4019V144.341Z" fill="#D8E0FF" fill-opacity="0.1"/>
<path d="M-25.4019 259.427H15.7528H59.2251V279.426H-25.4019V259.427Z" fill="#D8E0FF" fill-opacity="0.1"/>
<path d="M-14 63.1697C-14 54.8854 -7.28427 48.1697 0.999998 48.1697H39.0075H80C88.2843 48.1697 95 54.8854 95 63.1697V320.18C95 328.465 88.2843 335.18 80 335.18H0.999998C-7.28427 335.18 -14 328.465 -14 320.18V63.1697Z" fill="#5E9EE8"/>
<path d="M-3 91.1265H44.9008H95.499V111.126H-3V91.1265Z" fill="#D8E0FF" fill-opacity="0.1"/>
<path d="M-3 219.737H44.9008H95.499V239.736H-3V219.737Z" fill="#D8E0FF" fill-opacity="0.1"/>
</g>
</svg>
