<svg width="255" height="255" viewBox="0 0 255 255" fill="none" xmlns="http://www.w3.org/2000/svg">
<mask id="mask0_37_23" style="mask-type:alpha" maskUnits="userSpaceOnUse" x="0" y="0" width="255" height="255">
<rect width="255" height="255" fill="#F42E2E"/>
</mask>
<g mask="url(#mask0_37_23)">
<rect x="-72.7148" y="-7.96875" width="400.351" height="346.396" fill="#E0F6FF"/>
<path d="M-27.2949 132.738H13.699H57.0014V151.958H-27.2949V132.738Z" fill="#D8E0FF" fill-opacity="0.1"/>
<path d="M-27.2949 243.337H13.699H57.0014V262.557H-27.2949V243.337Z" fill="#D8E0FF" fill-opacity="0.1"/>
<path d="M57.7734 -4.9414C57.7734 -10.4642 62.2506 -14.9414 67.7734 -14.9414H128.497H193.203C198.726 -14.9414 203.203 -10.4643 203.203 -4.94141V275.879C203.203 281.402 198.726 285.879 193.203 285.879H67.7734C62.2506 285.879 57.7734 281.402 57.7734 275.879V-4.9414Z" fill="#5288C7"/>
<path d="M171.328 -5.9375C171.328 -11.4603 175.805 -15.9375 181.328 -15.9375H219.284H259.941C265.464 -15.9375 269.941 -11.4603 269.941 -5.9375V278.867C269.941 284.39 265.464 288.867 259.941 288.867H181.328C175.805 288.867 171.328 284.39 171.328 278.867V-5.9375Z" fill="#66C3E1"/>
<path d="M171.328 56.7773H219.284H269.941V76.6992H171.328V56.7773Z" fill="#E0F6FF" fill-opacity="0.5"/>
<path d="M171.328 162.363H219.769H270.937V182.285H171.328V162.363Z" fill="#E0F6FF" fill-opacity="0.5"/>
<path d="M72.7148 76.6992H120.671H171.328V95.625H72.7148V76.6992Z" fill="#E0F6FF" fill-opacity="0.5"/>
<path d="M72.7148 182.285H120.671H171.328V202.207H72.7148V182.285Z" fill="#E0F6FF" fill-opacity="0.5"/>
<path d="M-19 -9.92188C-19 -15.4447 -14.5228 -19.9219 -9 -19.9219H31.3784H74.5937C80.1166 -19.9219 84.5937 -15.4447 84.5937 -9.92188V281.855C84.5937 287.378 80.1166 291.855 74.5937 291.855H-9C-14.5228 291.855 -19 287.378 -19 281.855V-9.92188Z" fill="#5E9EE8"/>
<path d="M-13.0234 57.7734H34.4485H84.5938V76.6992H-13.0234V57.7734Z" fill="#E0F6FF" fill-opacity="0.5"/>
<path d="M-13.0234 163.359H34.4485H84.5938V182.285H-13.0234V163.359Z" fill="#E0F6FF" fill-opacity="0.5"/>
</g>
</svg>
