<svg width="356" height="356" viewBox="0 0 356 356" fill="none" xmlns="http://www.w3.org/2000/svg">
<mask id="mask0_39_4" style="mask-type:alpha" maskUnits="userSpaceOnUse" x="0" y="0" width="356" height="356">
<circle cx="178" cy="178" r="178" fill="#D9D9D9"/>
</mask>
<g mask="url(#mask0_39_4)">
<rect x="-29" width="442" height="178" fill="#D2F4FF"/>
<path d="M267 99H310.281H356V356H267V99Z" fill="#66C3E1"/>
<path d="M178 143H221.281H267V356H178V143Z" fill="#5288C7"/>
<path d="M0 99H43.2813H89V356H0V99Z" fill="#5288C7"/>
<path d="M89 48H132.281H178V356H89V48Z" fill="#5E9EE8"/>
<path d="M178 231H221.281H267V256H178V231Z" fill="white" fill-opacity="0.15"/>
<path d="M89 107H132.281H178V132H89V107Z" fill="white" fill-opacity="0.15"/>
<path d="M0 194H43.2813H89V219H0V194Z" fill="white" fill-opacity="0.15"/>
<path d="M267 194H310.281H356V219H267V194Z" fill="white" fill-opacity="0.15"/>
</g>
</svg>
