<svg width="274" height="274" viewBox="0 0 274 274" fill="none" xmlns="http://www.w3.org/2000/svg">
<mask id="mask0_36_4" style="mask-type:alpha" maskUnits="userSpaceOnUse" x="0" y="0" width="274" height="274">
<rect width="274" height="274" fill="#F42E2E"/>
</mask>
<g mask="url(#mask0_36_4)">
<rect x="-71" y="-3" width="401.921" height="347.754" fill="#E0F6FF"/>
<path d="M-25.4019 138.259H15.7528H59.2251V157.554H-25.4019V138.259Z" fill="#D8E0FF" fill-opacity="0.1"/>
<path d="M-25.4019 249.292H15.7528H59.2251V268.587H-25.4019V249.292Z" fill="#D8E0FF" fill-opacity="0.1"/>
<path d="M71 87C71 81.4771 75.4772 77 81 77H142.001H207C212.523 77 217 81.4772 217 87V312C217 317.523 212.523 322 207 322H81C75.4771 322 71 317.523 71 312V87Z" fill="#5288C7"/>
<path d="M185 59C185 53.4772 189.477 49 195 49H233.144H274C279.523 49 284 53.4772 284 59V296C284 301.523 279.523 306 274 306H195C189.477 306 185 301.523 185 296V59Z" fill="#66C3E1"/>
<path d="M185 96H233.144H284V116H185V96Z" fill="#E0F6FF" fill-opacity="0.5"/>
<path d="M185 202H233.631H285V222H185V202Z" fill="#E0F6FF" fill-opacity="0.5"/>
<path d="M86 116H134.144H185V135H86V116Z" fill="#E0F6FF" fill-opacity="0.5"/>
<path d="M86 222H134.144H185V242H86V222Z" fill="#E0F6FF" fill-opacity="0.5"/>
<path d="M-13 55C-13 49.4772 -8.52285 45 -3 45H37.5759H81C86.5229 45 91 49.4772 91 55V312C91 317.523 86.5228 322 81 322H-3C-8.52285 322 -13 317.523 -13 312V55Z" fill="#5E9EE8"/>
<path d="M-7 97H40.6581H91V116.295H-7V97Z" fill="#E0F6FF" fill-opacity="0.5"/>
<path d="M-7 203H40.6581H91V222.295H-7V203Z" fill="#E0F6FF" fill-opacity="0.5"/>
</g>
</svg>
