<svg width="259" height="77" viewBox="0 0 259 77" fill="none" xmlns="http://www.w3.org/2000/svg">
<path d="M130.262 57.0244V66.9404H96V15.6584H107.544V57.0244H130.262Z" fill="#323232"/>
<path d="M135.107 47.7744C135.107 44.321 135.625 41.3117 136.661 38.7464C137.747 36.1317 139.153 33.961 140.879 32.2344C142.606 30.5077 144.579 29.2004 146.799 28.3124C149.069 27.4244 151.387 26.9804 153.755 26.9804C159.281 26.9804 163.647 28.6824 166.853 32.0864C170.06 35.441 171.663 40.399 171.663 46.9604C171.663 47.6017 171.639 48.317 171.589 49.1064C171.54 49.8464 171.491 50.5124 171.441 51.1044H146.429C146.676 53.3737 147.737 55.1744 149.611 56.5064C151.486 57.8384 154.002 58.5044 157.159 58.5044C159.182 58.5044 161.155 58.3317 163.079 57.9864C165.053 57.5917 166.656 57.123 167.889 56.5804L169.369 65.5344C168.777 65.8304 167.988 66.1264 167.001 66.4224C166.015 66.7184 164.905 66.965 163.671 67.1624C162.487 67.409 161.205 67.6064 159.823 67.7544C158.442 67.9024 157.061 67.9764 155.679 67.9764C152.177 67.9764 149.118 67.4584 146.503 66.4224C143.938 65.3864 141.792 63.9804 140.065 62.2044C138.388 60.379 137.13 58.233 136.291 55.7664C135.502 53.2997 135.107 50.6357 135.107 47.7744ZM161.007 43.5564C160.958 42.619 160.785 41.7064 160.489 40.8184C160.243 39.9304 159.823 39.141 159.231 38.4504C158.689 37.7597 157.973 37.1924 157.085 36.7484C156.247 36.3044 155.186 36.0824 153.903 36.0824C152.67 36.0824 151.609 36.3044 150.721 36.7484C149.833 37.143 149.093 37.6857 148.501 38.3764C147.909 39.067 147.441 39.881 147.095 40.8184C146.799 41.7064 146.577 42.619 146.429 43.5564H161.007Z" fill="#323232"/>
<path d="M180.172 29.3484C182.047 28.8057 184.464 28.3124 187.424 27.8684C190.384 27.375 193.492 27.1284 196.748 27.1284C200.053 27.1284 202.791 27.5724 204.962 28.4604C207.182 29.299 208.933 30.5077 210.216 32.0864C211.499 33.665 212.411 35.5397 212.954 37.7104C213.497 39.881 213.768 42.2984 213.768 44.9624V66.9404H202.742V46.2944C202.742 42.7424 202.273 40.2264 201.336 38.7464C200.399 37.2664 198.647 36.5264 196.082 36.5264C195.293 36.5264 194.454 36.5757 193.566 36.6744C192.678 36.7237 191.889 36.7977 191.198 36.8964V66.9404H180.172V29.3484Z" fill="#323232"/>
<path d="M233.146 47.1824C233.146 50.5864 233.911 53.3244 235.44 55.3964C236.97 57.4684 239.239 58.5044 242.248 58.5044C243.235 58.5044 244.148 58.4797 244.986 58.4304C245.825 58.3317 246.516 58.233 247.058 58.1344V38.0804C246.368 37.6364 245.455 37.2664 244.32 36.9704C243.235 36.6744 242.125 36.5264 240.99 36.5264C235.761 36.5264 233.146 40.0784 233.146 47.1824ZM258.084 65.6824C257.098 65.9784 255.963 66.2744 254.68 66.5704C253.398 66.817 252.041 67.039 250.61 67.2364C249.229 67.4337 247.798 67.5817 246.318 67.6804C244.888 67.8284 243.506 67.9024 242.174 67.9024C238.968 67.9024 236.106 67.4337 233.59 66.4964C231.074 65.559 228.953 64.227 227.226 62.5004C225.5 60.7244 224.168 58.603 223.23 56.1364C222.342 53.6204 221.898 50.8084 221.898 47.7004C221.898 44.543 222.293 41.7064 223.082 39.1904C223.872 36.625 225.006 34.4544 226.486 32.6784C227.966 30.9024 229.767 29.5457 231.888 28.6084C234.059 27.671 236.526 27.2024 239.288 27.2024C240.818 27.2024 242.174 27.3504 243.358 27.6464C244.592 27.9424 245.825 28.3617 247.058 28.9044V11.2924L258.084 9.51636V65.6824Z" fill="#323232"/>
<mask id="mask0_21_173" style="mask-type:alpha" maskUnits="userSpaceOnUse" x="0" y="0" width="77" height="77">
<circle cx="38.5" cy="38.5" r="38.5" fill="#D9D9D9"/>
</mask>
<g mask="url(#mask0_21_173)">
<rect x="-33.4783" y="-35.1521" width="142.283" height="155.674" fill="#CEE4EB"/>
<path d="M15.0652 18.4131H26.1017H36.8261V117.174H15.0652V18.4131Z" fill="#5E9EE8"/>
<path d="M58.5869 18.4131H69.1694H80.3478V117.174H58.5869V18.4131Z" fill="#66C3E1"/>
<path d="M36.826 30.1305L47.6355 30.017L58.5869 30.1305V117.174H36.826V30.1305Z" fill="#5288C7"/>
<path d="M-5.02136 23.4349H5.22033H15.0656V117.174H-5.02136L-5.02136 23.4349Z" fill="#3562A4"/>
</g>
</svg>
