<svg width="274" height="274" viewBox="0 0 274 274" fill="none" xmlns="http://www.w3.org/2000/svg">
<mask id="mask0_32_243" style="mask-type:alpha" maskUnits="userSpaceOnUse" x="0" y="0" width="274" height="274">
<rect width="274" height="274" rx="25" fill="#F42E2E"/>
</mask>
<g mask="url(#mask0_32_243)">
<rect x="-97" y="-80" width="401.921" height="347.754" fill="#E0F6FF"/>
<path d="M165.352 118.501C165.352 112.979 169.829 108.501 175.352 108.501H223.215H274.337C279.86 108.501 284.337 112.978 284.337 118.501V313.004C284.337 318.527 279.86 323.004 274.337 323.004H175.352C169.829 323.004 165.352 318.527 165.352 313.004V118.501Z" fill="#66C3E1"/>
<path d="M177.877 137H229.649H284.337V156.5H177.877V137Z" fill="#D8E0FF" fill-opacity="0.1"/>
<path d="M172.867 233.418H227.076H284.338V252.918H172.867V233.418Z" fill="#D8E0FF" fill-opacity="0.1"/>
<path d="M-4 88C-4 82.4771 0.477152 78 6 78H87.912H175C180.523 78 185 82.4772 185 88V313C185 318.523 180.523 323 175 323H6C0.477148 323 -4 318.523 -4 313V88Z" fill="#5288C7"/>
<path d="M69 117H125.412H185V136H69V117Z" fill="#D8E0FF" fill-opacity="0.1"/>
<path d="M68.8735 223H125.347H185V242.652H68.8735V223Z" fill="#D8E0FF" fill-opacity="0.1"/>
<path d="M-25.4019 139.259H15.7528H59.2251V158.554H-25.4019V139.259Z" fill="#D8E0FF" fill-opacity="0.1"/>
<path d="M-25.4019 250.292H15.7528H59.2251V269.587H-25.4019V250.292Z" fill="#D8E0FF" fill-opacity="0.1"/>
<path d="M-12 56C-12 50.4772 -7.52285 46 -2 46H35.6581H76C81.5229 46 86 50.4772 86 56V313C86 318.523 81.5228 323 76 323H-2C-7.52285 323 -12 318.523 -12 313V56Z" fill="#5E9EE8"/>
<path d="M-12.499 87.9177H35.4017H86V107.213H-12.499V87.9177Z" fill="#D8E0FF" fill-opacity="0.1"/>
<path d="M-12.499 212H35.4017H86V231.295H-12.499V212Z" fill="#D8E0FF" fill-opacity="0.1"/>
</g>
</svg>
