<svg width="274" height="257" viewBox="0 0 274 257" fill="none" xmlns="http://www.w3.org/2000/svg">
<mask id="mask0_32_176" style="mask-type:alpha" maskUnits="userSpaceOnUse" x="0" y="0" width="274" height="257">
<path d="M0 0H274V232C274 245.807 262.807 257 249 257H25C11.1929 257 0 245.807 0 232V0Z" fill="#D9D9D9"/>
</mask>
<g mask="url(#mask0_32_176)">
<path d="M164.169 69C164.169 63.4772 168.646 59 174.169 59H217.581H264C269.523 59 274 63.4772 274 69V247C274 252.523 269.523 257 264 257H174.169C168.646 257 164.169 252.523 164.169 247V69Z" fill="#66C3E1"/>
<path d="M175.73 101H223.519H274V119H175.73V101Z" fill="#D8E0FF" fill-opacity="0.1"/>
<path d="M171.105 190H221.144H274V208H171.105V190Z" fill="#D8E0FF" fill-opacity="0.1"/>
<path d="M8.09277 41C8.09277 35.4772 12.5699 31 18.0928 31H92.9893H172.667C178.189 31 182.667 35.4772 182.667 41V247C182.667 252.523 178.189 257 172.667 257H18.0928C12.5699 257 8.09277 252.523 8.09277 247V41Z" fill="#5288C7"/>
<path d="M75.1123 74H127.347H182.523V91.8104H75.1123V74Z" fill="#D8E0FF" fill-opacity="0.1"/>
<path d="M75.1123 200.019H127.417H182.667V218.159H75.1123V200.019Z" fill="#D8E0FF" fill-opacity="0.1"/>
<path d="M-11.9097 87.3912H26.0788H66.2066V105.202H-11.9097V87.3912Z" fill="#D8E0FF" fill-opacity="0.1"/>
<path d="M-11.9097 189.882H26.0788H66.2066V207.693H-11.9097V189.882Z" fill="#D8E0FF" fill-opacity="0.1"/>
<path d="M0 11C0 5.47715 4.47715 1 10 1H44.416H81.3333C86.8562 1 91.3333 5.47715 91.3333 11V247C91.3333 252.523 86.8562 257 81.3333 257H10C4.47716 257 0 252.523 0 247V11Z" fill="#5E9EE8"/>
<path d="M0 40H44.1709H90.8292V57.8104H0V40Z" fill="#D8E0FF" fill-opacity="0.1"/>
<path d="M0 187.773H44.1709H90.8292V205.583H0V187.773Z" fill="#D8E0FF" fill-opacity="0.1"/>
</g>
</svg>
