<svg width="356" height="356" viewBox="0 0 356 356" fill="none" xmlns="http://www.w3.org/2000/svg">
<mask id="mask0_25_112" style="mask-type:alpha" maskUnits="userSpaceOnUse" x="0" y="0" width="356" height="356">
<circle cx="178" cy="178" r="178" fill="#D9D9D9"/>
</mask>
<g mask="url(#mask0_25_112)">
<rect x="-29" width="442" height="178" fill="#D2F4FF"/>
<path d="M267 104C267 101.239 269.239 99 272 99H310.281H351C353.761 99 356 101.239 356 104V351C356 353.761 353.761 356 351 356H272C269.239 356 267 353.761 267 351V104Z" fill="#66C3E1"/>
<path d="M178 148C178 145.239 180.239 143 183 143H221.281H262C264.761 143 267 145.239 267 148V404C267 406.761 264.761 409 262 409H183C180.239 409 178 406.761 178 404V148Z" fill="#5288C7"/>
<path d="M0 104C0 101.239 2.23858 99 5 99H43.2813H84C86.7614 99 89 101.239 89 104V351C89 353.761 86.7614 356 84 356H5C2.23858 356 0 353.761 0 351V104Z" fill="#5288C7"/>
<path d="M89 53C89 50.2386 91.2386 48 94 48H132.281H173C175.761 48 178 50.2386 178 53V402C178 404.761 175.761 407 173 407H94C91.2386 407 89 404.761 89 402V53Z" fill="#5E9EE8"/>
<path d="M178 270H221.281H267V295H178V270Z" fill="white" fill-opacity="0.15"/>
<path d="M89 99H132.281H178V124H89V99Z" fill="white" fill-opacity="0.15"/>
<path d="M0 194H43.2813H89V219H0V194Z" fill="white" fill-opacity="0.15"/>
<path d="M267 194H310.281H356V219H267V194Z" fill="white" fill-opacity="0.15"/>
</g>
</svg>
