<svg width="237" height="257" viewBox="0 0 237 257" fill="none" xmlns="http://www.w3.org/2000/svg">
<mask id="mask0_32_176" style="mask-type:alpha" maskUnits="userSpaceOnUse" x="0" y="0" width="237" height="257">
<path d="M0 0H237V232C237 245.807 225.807 257 212 257H25C11.1929 257 0 245.807 0 232V0Z" fill="#D9D9D9"/>
</mask>
<g mask="url(#mask0_32_176)">
<path d="M142 69C142 63.4772 146.477 59 152 59H188.199H227C232.523 59 237 63.4772 237 69V247C237 252.523 232.523 257 227 257H152C146.477 257 142 252.523 142 247V69Z" fill="#66C3E1"/>
<path d="M152 101H193.336H237V119H152V101Z" fill="#D8E0FF" fill-opacity="0.1"/>
<path d="M148 190H191.281H237V208H148V190Z" fill="#D8E0FF" fill-opacity="0.1"/>
<path d="M7 41C7 35.4772 11.4772 31 17 31H80.4324H148C153.523 31 158 35.4772 158 41V247C158 252.523 153.523 257 148 257H17C11.4772 257 7 252.523 7 247V41Z" fill="#5288C7"/>
<path d="M64.9692 74H110.15H157.876V91.8104H64.9692V74Z" fill="#D8E0FF" fill-opacity="0.1"/>
<path d="M64.9692 200.019H110.211H158V218.159H64.9692V200.019Z" fill="#D8E0FF" fill-opacity="0.1"/>
<path d="M-10.3013 87.3912H22.5574H57.2664V105.202H-10.3013V87.3912Z" fill="#D8E0FF" fill-opacity="0.1"/>
<path d="M-10.3013 189.882H22.5574H57.2664V207.693H-10.3013V189.882Z" fill="#D8E0FF" fill-opacity="0.1"/>
<path d="M0 11C0 5.47715 4.47715 1 10 1H38.4183H69C74.5229 1 79 5.47715 79 11V247C79 252.523 74.5228 257 69 257H10C4.47715 257 0 252.523 0 247V11Z" fill="#5E9EE8"/>
<path d="M0 40H38.2062H78.564V57.8104H0V40Z" fill="#D8E0FF" fill-opacity="0.1"/>
<path d="M0 187.773H38.2062H78.564V205.583H0V187.773Z" fill="#D8E0FF" fill-opacity="0.1"/>
</g>
</svg>
