<svg width="213" height="58" viewBox="0 0 213 58" fill="none" xmlns="http://www.w3.org/2000/svg">
<rect y="10.1973" width="16.2377" height="46.8027" rx="1" fill="#323232"/>
<rect x="18.148" y="14.0179" width="18.148" height="42.9821" rx="1" fill="#323232"/>
<rect x="38.2063" y="10.1973" width="16.2377" height="46.8027" rx="1" fill="#323232"/>
<path d="M60.566 50.91L64.22 49.924V27.71C64.22 26.7047 64.1427 26.0473 63.988 25.738C63.872 25.39 63.5047 25.0807 62.886 24.81L60.45 23.418L60.624 17.908H78.72L79.01 23.824L74.718 24.984V50.04L82.026 49.866L86.956 44.24L91.422 44.472C91.3447 47.72 91.074 51.896 90.61 57H60.856L60.566 50.91ZM109.366 57.696C104.842 57.696 101.342 56.3233 98.8678 53.578C96.4318 50.8327 95.2138 47.0433 95.2138 42.21C95.2138 38.846 95.8131 35.9653 97.0118 33.568C98.2104 31.132 99.9118 29.276 102.116 28C104.32 26.724 106.891 26.086 109.83 26.086C114.199 26.086 117.544 27.478 119.864 30.262C122.222 33.046 123.344 37.0093 123.228 42.152L105.596 45.4C106.137 47.024 106.891 48.2227 107.858 48.996C108.863 49.7307 110.178 50.098 111.802 50.098C112.923 50.098 114.257 49.9433 115.804 49.634C117.35 49.286 118.916 48.822 120.502 48.242L121.836 53.984C120.405 55.0667 118.549 55.956 116.268 56.652C113.986 57.348 111.686 57.696 109.366 57.696ZM113.716 37.28C113.638 35.8107 113.213 34.7473 112.44 34.09C111.705 33.394 110.661 33.046 109.308 33.046C108.186 33.046 107.123 33.2007 106.118 33.51C105.306 35.4047 104.938 37.454 105.016 39.658L113.716 37.28ZM126.098 51.432L129.694 50.388V36.352C129.694 35.5013 129.636 34.96 129.52 34.728C129.404 34.4573 129.095 34.1673 128.592 33.858L126.04 32.466L126.214 28.116L127.49 27.884C132.555 26.8787 136.209 26.3373 138.452 26.26C138.761 27.072 139.013 27.9613 139.206 28.928C141.565 27.8453 143.479 27.1107 144.948 26.724C146.456 26.2987 147.867 26.086 149.182 26.086C155.33 26.086 158.404 29.7593 158.404 37.106V48.474C158.404 49.286 158.462 49.8273 158.578 50.098C158.694 50.3687 159.023 50.6587 159.564 50.968L162.348 52.592L162.116 56.942H146.108L145.818 51.432L148.66 50.62V39.658C148.66 37.918 148.602 36.7 148.486 36.004C148.37 35.308 148.041 34.7667 147.5 34.38C146.997 33.9933 146.089 33.8 144.774 33.8C143.382 33.8 141.623 34.0127 139.496 34.438V48.474C139.496 49.286 139.554 49.8273 139.67 50.098C139.786 50.3687 140.095 50.6587 140.598 50.968L143.44 52.592L143.208 56.942H126.388L126.098 51.432ZM175.581 57.754C171.869 57.754 168.969 56.362 166.881 53.578C164.793 50.794 163.749 47.0627 163.749 42.384C163.749 37.0093 165.16 32.9493 167.983 30.204C170.844 27.4587 174.904 26.086 180.163 26.086C180.472 26.086 181.478 26.1247 183.179 26.202V22.722C183.179 21.8713 183.121 21.3107 183.005 21.04C182.889 20.7693 182.56 20.4793 182.019 20.17L179.409 18.836L179.699 14.428C183.411 13.7707 186.156 13.326 187.935 13.094C189.714 12.8233 191.125 12.6687 192.169 12.63C192.517 13.5193 192.768 14.5247 192.923 15.646V48.648C192.923 49.344 192.981 49.8273 193.097 50.098C193.252 50.3687 193.58 50.6393 194.083 50.91L196.287 52.244L196.055 55.84C192.266 56.8067 188.554 57.3867 184.919 57.58C184.648 56.8453 184.378 55.956 184.107 54.912C181.478 56.8067 178.636 57.754 175.581 57.754ZM178.945 50.33C180.221 50.33 181.652 49.9047 183.237 49.054V34.032C182.077 33.5293 180.588 33.278 178.771 33.278C177.302 33.278 175.89 33.4713 174.537 33.858C174.228 34.5927 173.976 35.598 173.783 36.874C173.628 38.15 173.551 39.5613 173.551 41.108C173.551 44.2787 173.976 46.618 174.827 48.126C175.716 49.5953 177.089 50.33 178.945 50.33Z" fill="#323232"/>
</svg>
