<svg width="184" height="52" viewBox="0 0 184 52" fill="none" xmlns="http://www.w3.org/2000/svg">
<rect x="7" width="14" height="51" fill="#669FE1"/>
<rect x="21" y="4" width="11" height="47" fill="#5288C7"/>
<rect x="32" width="11" height="51" fill="#7DC8DF"/>
<rect y="7" width="7" height="44" fill="#4574AB"/>
<path d="M79.78 42.52V50.56H52V8.98H61.36V42.52H79.78Z" fill="#323232"/>
<path d="M83.7086 35.02C83.7086 32.22 84.1286 29.78 84.9686 27.7C85.8486 25.58 86.9886 23.82 88.3886 22.42C89.7886 21.02 91.3886 19.96 93.1886 19.24C95.0286 18.52 96.9086 18.16 98.8286 18.16C103.309 18.16 106.849 19.54 109.449 22.3C112.049 25.02 113.349 29.04 113.349 34.36C113.349 34.88 113.329 35.46 113.289 36.1C113.249 36.7 113.209 37.24 113.169 37.72H92.8886C93.0886 39.56 93.9486 41.02 95.4686 42.1C96.9886 43.18 99.0286 43.72 101.589 43.72C103.229 43.72 104.829 43.58 106.389 43.3C107.989 42.98 109.289 42.6 110.289 42.16L111.489 49.42C111.009 49.66 110.369 49.9 109.569 50.14C108.769 50.38 107.869 50.58 106.869 50.74C105.909 50.94 104.869 51.1 103.749 51.22C102.629 51.34 101.509 51.4 100.389 51.4C97.5486 51.4 95.0686 50.98 92.9486 50.14C90.8686 49.3 89.1286 48.16 87.7286 46.72C86.3686 45.24 85.3486 43.5 84.6686 41.5C84.0286 39.5 83.7086 37.34 83.7086 35.02ZM104.709 31.6C104.669 30.84 104.529 30.1 104.289 29.38C104.089 28.66 103.749 28.02 103.269 27.46C102.829 26.9 102.249 26.44 101.529 26.08C100.849 25.72 99.9886 25.54 98.9486 25.54C97.9486 25.54 97.0886 25.72 96.3686 26.08C95.6486 26.4 95.0486 26.84 94.5686 27.4C94.0886 27.96 93.7086 28.62 93.4286 29.38C93.1886 30.1 93.0086 30.84 92.8886 31.6H104.709Z" fill="#323232"/>
<path d="M120.248 20.08C121.768 19.64 123.728 19.24 126.128 18.88C128.528 18.48 131.048 18.28 133.688 18.28C136.368 18.28 138.588 18.64 140.348 19.36C142.148 20.04 143.568 21.02 144.608 22.3C145.648 23.58 146.388 25.1 146.828 26.86C147.268 28.62 147.488 30.58 147.488 32.74V50.56H138.548V33.82C138.548 30.94 138.168 28.9 137.408 27.7C136.648 26.5 135.228 25.9 133.148 25.9C132.508 25.9 131.828 25.94 131.108 26.02C130.388 26.06 129.748 26.12 129.188 26.2V50.56H120.248V20.08Z" fill="#323232"/>
<path d="M163.2 34.54C163.2 37.3 163.82 39.52 165.06 41.2C166.3 42.88 168.14 43.72 170.58 43.72C171.38 43.72 172.12 43.7 172.8 43.66C173.48 43.58 174.04 43.5 174.48 43.42V27.16C173.92 26.8 173.18 26.5 172.26 26.26C171.38 26.02 170.48 25.9 169.56 25.9C165.32 25.9 163.2 28.78 163.2 34.54ZM183.42 49.54C182.62 49.78 181.7 50.02 180.66 50.26C179.62 50.46 178.52 50.64 177.36 50.8C176.24 50.96 175.08 51.08 173.88 51.16C172.72 51.28 171.6 51.34 170.52 51.34C167.92 51.34 165.6 50.96 163.56 50.2C161.52 49.44 159.8 48.36 158.4 46.96C157 45.52 155.92 43.8 155.16 41.8C154.44 39.76 154.08 37.48 154.08 34.96C154.08 32.4 154.4 30.1 155.04 28.06C155.68 25.98 156.6 24.22 157.8 22.78C159 21.34 160.46 20.24 162.18 19.48C163.94 18.72 165.94 18.34 168.18 18.34C169.42 18.34 170.52 18.46 171.48 18.7C172.48 18.94 173.48 19.28 174.48 19.72V5.44L183.42 4V49.54Z" fill="#323232"/>
</svg>
